<svg width="60" height="50" viewBox="0 0 60 50" fill="none" xmlns="http://www.w3.org/2000/svg"><path d="M16 28H40C43.3137 28 46 25.3137 46 22C46 18.6863 43.3137 16 40 16C39.7 16 39.5 16.05 39.2 16.1C38.5 11.5 34.5 8 29.5 8C24.5 8 20.5 11.5 19.8 16.1C19.5 16.05 19.3 16 19 16C15.6863 16 13 18.6863 13 22C13 25.3137 15.6863 28 19 28" stroke="#595959" stroke-width="4" stroke-linecap="round" stroke-linejoin="round"/><path d="M19 35V41M16 38H22M17 36L21 40M17 40L21 36" stroke="#595959" stroke-width="2.5" stroke-linecap="round"/><path d="M30 35V41M27 38H33M28 36L32 40M28 40L32 36" stroke="#595959" stroke-width="2.5" stroke-linecap="round"/><path d="M41 35V41M38 38H44M39 36L43 40M39 40L43 36" stroke="#595959" stroke-width="2.5" stroke-linecap="round"/></svg>